<svg xmlns="http://www.w3.org/2000/svg" width="1024" height="1024" viewBox="0 0 1024 1024" fill="none">
  <defs>
    <linearGradient id="bg" x1="136" y1="104" x2="888" y2="920" gradientUnits="userSpaceOnUse">
      <stop stop-color="#0F172A" />
      <stop offset="0.52" stop-color="#111C39" />
      <stop offset="1" stop-color="#0A1225" />
    </linearGradient>
    <linearGradient id="accent" x1="292" y1="228" x2="760" y2="792" gradientUnits="userSpaceOnUse">
      <stop stop-color="#34D399" />
      <stop offset="1" stop-color="#10B981" />
    </linearGradient>
    <linearGradient id="glow" x1="240" y1="220" x2="772" y2="812" gradientUnits="userSpaceOnUse">
      <stop stop-color="#A7F3D0" stop-opacity="0.9" />
      <stop offset="1" stop-color="#34D399" stop-opacity="0.2" />
    </linearGradient>
    <filter id="shadow" x="152" y="156" width="720" height="720" filterUnits="userSpaceOnUse" color-interpolation-filters="sRGB">
      <feFlood flood-opacity="0" result="BackgroundImageFix"/>
      <feColorMatrix in="SourceAlpha" type="matrix" values="0 0 0 0 0 0 0 0 0 0 0 0 0 0 0 0 0 0 127 0" result="hardAlpha"/>
      <feOffset dy="22"/>
      <feGaussianBlur stdDeviation="36"/>
      <feColorMatrix type="matrix" values="0 0 0 0 0.0313726 0 0 0 0 0.0705882 0 0 0 0 0.145098 0 0 0 0.38 0"/>
      <feBlend mode="normal" in2="BackgroundImageFix" result="effect1_dropShadow_0_1"/>
      <feBlend mode="normal" in="SourceGraphic" in2="effect1_dropShadow_0_1" result="shape"/>
    </filter>
  </defs>
  <rect width="1024" height="1024" rx="248" fill="url(#bg)"/>
  <circle cx="810" cy="214" r="124" fill="#34D399" fill-opacity="0.14"/>
  <circle cx="226" cy="850" r="164" fill="#38BDF8" fill-opacity="0.08"/>
  <g filter="url(#shadow)">
    <rect x="224" y="228" width="576" height="576" rx="176" fill="#06111F" fill-opacity="0.92" stroke="#A7F3D029"/>
    <path d="M512 338C421.351 338 348 411.351 348 502V632C348 678.392 385.608 716 432 716H592C638.392 716 676 678.392 676 632V502C676 411.351 602.649 338 512 338Z" fill="url(#glow)" fill-opacity="0.3"/>
    <path d="M512 370C438.546 370 379 429.546 379 503V624C379 651.062 400.938 673 428 673H596C623.062 673 645 651.062 645 624V503C645 429.546 585.454 370 512 370Z" stroke="url(#accent)" stroke-width="42" stroke-linecap="round" stroke-linejoin="round"/>
    <path d="M468 496C468 470.49 488.49 450 514 450C539.51 450 560 470.49 560 496V547H468V496Z" fill="url(#accent)"/>
    <rect x="435" y="548" width="158" height="96" rx="38" fill="#E2FFF3" fill-opacity="0.95"/>
    <path d="M514 566V623" stroke="#0F172A" stroke-width="30" stroke-linecap="round"/>
  </g>
  <path d="M337 276H475" stroke="#E2FFF36B" stroke-width="30" stroke-linecap="round"/>
  <path d="M549 748H687" stroke="#E2FFF347" stroke-width="22" stroke-linecap="round"/>
</svg>